<?xml version="1.0" encoding="UTF-8" standalone="no"?>
<!-- Created with Inkscape (http://www.inkscape.org/) -->

<svg
   width="100%"
   height="100%"
   viewBox="0 0 12.7 12.7"
   version="1.1"
   id="svg5"
   sodipodi:docname="Pawn Mountain Final2 icon no swipe.svg"
   inkscape:version="1.1.1 (3bf5ae0d25, 2021-09-20)"
   inkscape:export-filename="C:\Users\Abraham\Desktop\Club Stuff\Logo Stuff\Pawn Mountain Final2 icon.png"
   inkscape:export-xdpi="4096"
   inkscape:export-ydpi="4096"
   xmlns:inkscape="http://www.inkscape.org/namespaces/inkscape"
   xmlns:sodipodi="http://sodipodi.sourceforge.net/DTD/sodipodi-0.dtd"
   xmlns:xlink="http://www.w3.org/1999/xlink"
   xmlns="http://www.w3.org/2000/svg"
   xmlns:svg="http://www.w3.org/2000/svg">
  <sodipodi:namedview
     id="namedview7"
     pagecolor="#ffffff"
     bordercolor="#666666"
     borderopacity="1.0"
     inkscape:pageshadow="2"
     inkscape:pageopacity="0.0"
     inkscape:pagecheckerboard="0"
     inkscape:document-units="px"
     showgrid="false"
     showborder="true"
     inkscape:zoom="8"
     inkscape:cx="38.1875"
     inkscape:cy="23.8125"
     inkscape:window-width="1366"
     inkscape:window-height="705"
     inkscape:window-x="-8"
     inkscape:window-y="-8"
     inkscape:window-maximized="1"
     inkscape:current-layer="layer2"
     inkscape:snap-nodes="false"
     units="px" />
  <defs
     id="defs2">
    <rect
       x="-259.50818"
       y="482.2468"
       width="352.84628"
       height="179.60512"
       id="rect30782" />
    <rect
       x="-251.0229"
       y="504.16711"
       width="256.67975"
       height="120.91526"
       id="rect28400" />
    <rect
       x="-365"
       y="509"
       width="114.4136"
       height="186.60303"
       id="rect11034" />
    <rect
       x="-367.69553"
       y="486.48947"
       width="427.0925"
       height="124.45079"
       id="rect37026" />
    <rect
       x="-384"
       y="332"
       width="452"
       height="132"
       id="rect18878" />
    <rect
       x="-348"
       y="332"
       width="94"
       height="156"
       id="rect11566" />
    <rect
       x="-478"
       y="554"
       width="724"
       height="266"
       id="rect25426" />
    <rect
       x="-566"
       y="276"
       width="267.69229"
       height="213.61636"
       id="rect10898" />
    <linearGradient
       inkscape:collect="always"
       id="linearGradient16151">
      <stop
         style="stop-color:#8fd0ff;stop-opacity:1;"
         offset="0"
         id="stop16147" />
      <stop
         style="stop-color:#0000ff;stop-opacity:1"
         offset="1"
         id="stop16149" />
    </linearGradient>
    <linearGradient
       inkscape:collect="always"
       id="linearGradient16145">
      <stop
         style="stop-color:#8fd0ff;stop-opacity:1;"
         offset="0"
         id="stop16141" />
      <stop
         style="stop-color:#0000ff;stop-opacity:1"
         offset="1"
         id="stop16143" />
    </linearGradient>
    <linearGradient
       inkscape:collect="always"
       id="linearGradient16139">
      <stop
         style="stop-color:#8fd0ff;stop-opacity:1;"
         offset="0"
         id="stop16135" />
      <stop
         style="stop-color:#0000ff;stop-opacity:1"
         offset="1"
         id="stop16137" />
    </linearGradient>
    <linearGradient
       inkscape:collect="always"
       id="linearGradient16133">
      <stop
         style="stop-color:#8fd0ff;stop-opacity:1;"
         offset="0"
         id="stop16129" />
      <stop
         style="stop-color:#0000ff;stop-opacity:1"
         offset="1"
         id="stop16131" />
    </linearGradient>
    <linearGradient
       inkscape:collect="always"
       id="linearGradient16117">
      <stop
         style="stop-color:#8fd0ff;stop-opacity:1;"
         offset="0"
         id="stop16113" />
      <stop
         style="stop-color:#0000ff;stop-opacity:1"
         offset="1"
         id="stop16115" />
    </linearGradient>
    <linearGradient
       inkscape:collect="always"
       xlink:href="#linearGradient16117"
       id="linearGradient16119"
       x1="381.76077"
       y1="1280.2382"
       x2="130.10449"
       y2="2198.9426"
       gradientUnits="userSpaceOnUse" />
    <linearGradient
       inkscape:collect="always"
       xlink:href="#linearGradient16151"
       id="linearGradient16121"
       x1="101.00754"
       y1="338.72968"
       x2="34.423481"
       y2="581.80353"
       gradientUnits="userSpaceOnUse" />
    <linearGradient
       inkscape:collect="always"
       xlink:href="#linearGradient16145"
       id="linearGradient16123"
       x1="101.00754"
       y1="338.72968"
       x2="34.423481"
       y2="581.80353"
       gradientUnits="userSpaceOnUse" />
    <linearGradient
       inkscape:collect="always"
       xlink:href="#linearGradient16139"
       id="linearGradient16125"
       x1="381.76077"
       y1="1280.2382"
       x2="130.10449"
       y2="2198.9426"
       gradientUnits="userSpaceOnUse" />
    <linearGradient
       inkscape:collect="always"
       xlink:href="#linearGradient16133"
       id="linearGradient16127"
       x1="101.00754"
       y1="338.72968"
       x2="34.423481"
       y2="581.80353"
       gradientUnits="userSpaceOnUse" />
  </defs>
  <g
     inkscape:groupmode="layer"
     id="layer2"
     inkscape:label="Layer 2"
     style="display:inline">
    <g
       id="g18322"
       transform="matrix(0.05220539,0,0,0.05220539,2.337023,-16.749569)">
      <path
         id="rect3697"
         style="display:inline;fill:url(#linearGradient16121);fill-opacity:1;stroke-width:0.264583"
         d="m 54.118144,396.39544 c -41.800215,7.42103 0,17.76997 0,17.76997 h 39.781033 c 0,0 41.800213,-10.34894 0,-17.76997 z" />
      <path
         id="rect4090"
         style="display:inline;fill:url(#linearGradient16123);fill-opacity:1;stroke-width:0.279467"
         d="m 54.320199,416.99314 c -0.510694,47.66975 -15.481742,70.06622 -15.481742,70.06622 h 15.481742 38.972814 15.481747 c 0,0 -14.971053,-22.39647 -15.481747,-70.06622 z" />
      <path
         id="rect4715"
         style="display:inline;fill:url(#linearGradient16125);fill-opacity:1;stroke-width:0.999999"
         d="m 123.58594,1852.1582 c 2.25947,33.1976 -109.55469,97.1406 -109.55469,97.1406 v 69.0782 h 533.73633 v -69.0782 c 0,0 -113.43132,-63.943 -111.17188,-97.1406 z"
         transform="scale(0.26458333)" />
      <path
         id="path2272"
         style="fill:url(#linearGradient16119);fill-opacity:1;fill-rule:evenodd;stroke-width:1.3257"
         d="m 275.06641,1212.623 -5.25782,1.1817 -3.77929,-0.2949 -2.83594,-0.4141 -3.72266,-0.2363 -2.48047,1.2422 -7.02929,1.7714 h -4.13477 l -3.25,2.7754 -4.7832,1.7735 -3.78125,2.0664 -6.26172,0.709 -5.02148,1.4765 -3.18946,2.3633 -5.73047,4.4297 -6.20117,3.6035 -3.48633,0.5918 -9.50976,5.7305 -2.24414,0.5312 -2.36328,2.7168 -1.89063,0.4727 -0.17773,2.3633 -1.00391,0.6484 -1.18164,2.7188 -1.59375,0.7675 -0.29687,1.1231 -2.24415,2.4218 -21.97461,12.8184 -2.18554,2.7168 -6.82617,3.4063 a 152.18776,160.33202 0 0 0 -18.20899,62.3847 h 302.90039 a 152.18776,160.33202 0 0 0 -15.87109,-57.7246 l -0.50781,-0.1269 -5.30469,-3.4668 -5.80664,-4.0098 -2.00391,0.043 -5.13867,-4.1778 -5.17969,-3.4257 -1.58593,1.7968 -5.73438,-0.9609 -7.38281,-3.0117 -4.25391,-3.3379 -1.18164,0.1777 -0.88476,-1.9785 -2.45118,0.2949 -5.8789,-4.5488 -0.35352,-1.6543 -3.04297,-1.4766 -1.09179,-1.8027 c 0,0 -1.59602,0.2077 -2.03907,-0.029 -0.44305,-0.2362 -4.78515,-3.0137 -4.78515,-3.0137 l -2.48047,-0.709 -1.6836,-3.3652 -2.42187,-0.916 -2.7168,-3.6035 -3.45703,-1.5957 -0.70703,-1.8594 -2.6582,-0.7402 -2.2461,-2.5391 -2.27343,-2.0371 -1.18165,-1.1524 -2.36328,-3.0136 -3.42578,-1.6231 -3.54492,-0.7695 -4.13476,-1.4766 -9.62891,2.4219 -10.80859,-0.2949 -9.92579,-2.9531 -4.01562,-1.8907 -4.78516,-1.7714 -1.77148,-1.418 z m -142.64844,123.8614 a 152.18776,160.33202 0 0 0 -0.73828,14.9062 152.18776,160.33202 0 0 0 72.71093,136.6114 h 158.95313 a 152.18776,160.33202 0 0 0 72.71289,-136.6114 152.18776,160.33202 0 0 0 -0.73828,-14.9062 z"
         transform="scale(0.26458333)" />
      <rect
         style="fill:url(#linearGradient16127);fill-opacity:1;stroke-width:0.28134"
         id="rect11694"
         width="155.88753"
         height="27.017227"
         x="-3.2073271"
         y="537.06042" />
    </g>
    <text
       xml:space="preserve"
       transform="scale(0.26458333)"
       id="text28398"
       style="font-style:normal;font-weight:normal;font-size:40px;line-height:1.25;font-family:sans-serif;white-space:pre;shape-inside:url(#rect28400);fill:#000000;fill-opacity:1;stroke:none" />
  </g>
  <g
     inkscape:groupmode="layer"
     id="layer3"
     inkscape:label="Layer 3"
     style="display:inline" />
  <g
     inkscape:label="Layer 1"
     inkscape:groupmode="layer"
     id="layer1"
     style="display:inline" />
</svg>
